<?xml version="1.0" encoding="UTF-8"?>
<svg id="Lager_1" xmlns="http://www.w3.org/2000/svg" version="1.1" viewBox="0 0 238.4 157.1">
  <!-- Generator: Adobe Illustrator 29.0.1, SVG Export Plug-In . SVG Version: 2.1.0 Build 192)  -->
  <defs>
    <style>
      .st0 {
        fill: #fff;
      }

      .st1 {
        fill: #d7d8d8;
      }
    </style>
  </defs>
  <path class="st1" d="M192.4,27.8c0-8.1-4.8-15.4-12.3-18.5L158.2.2v156.9h22.8V53.1l11.4-1.6v-23.6s0,0,0,0Z"/>
  <polygon class="st0" points="182.6 54.4 182.6 157 213 157 213 50 182.6 54.4"/>
  <polygon class="st1" points="0 24.3 0 157 39 157 39 12.9 0 24.3"/>
  <path class="st1" d="M238.4,157v-91.1c0-4.8-3.1-9.1-7.7-10.6l-16.3-5.2v106.9h24Z"/>
  <path class="st0" d="M97.7,29.6L40.5,12.9v144.1h116.2V0l-26.2,6.3v48.3c0,0,.1.9.1.9v38.5c13.3,1.1,20.4,2.8,21.4,5.1h.2v.9c0,0-8.1,54.2-8.1,54.2h-73l-.9-7.8-6.9-44v-2.8c.1,0,0-.1,0-.2,0-5.2,28.9-6.5,44.1-6.5s4.6,0,6.7,0v-41.4c0-10.1-6.8-19.1-16.5-21.9h0Z"/>
</svg>